# xmcd
#
# Track frame offsets:
#	150
#	10095
#	15817
#	29642
#	42472
#	53475
#	68832
#	86745
#	98910
#	111977
#	126972
#	137150
#	146935
#	154130
#	161437
#	173462
#	182462
#	195082
#	203967
#	214195
#	222730
#	232447
#	242142
#	251595
#
# Disc length: 3527 seconds
#
# Revision: 0
# Processed by: cddbd v1.5.2PL0 Copyright (c) Steve Scherf et al.
# Submitted via: audiograbber 1.83.01
#
DISCID=5a0dc518
DTITLE=The Small Faces - The Immediate Years [CD 2)
DYEAR=1995
DGENRE=Rock
TTITLE0=I Can't Make It [stereo version]
TTITLE1=Just Passing [stereo version]
TTITLE2=Here Comes The Nice [stereo version]
TTITLE3=Itchycoo Park [stereo version]
TTITLE4=I'm Only Dreaming [stereo version]
TTITLE5=Tin Soldier [stereo version]
TTITLE6=I Feel Much Better [stereo version]
TTITLE7=The Universal [stereo version]
TTITLE8=Donkey Rides, A Penny, A Glass [stereo version]
TTITLE9=Wham Bam, Thank You Mam [stereo version]
TTITLE10=(Tell Me) Have You Ever Seen Me [version 2]
TTITLE11=Something I Want To Tell You
TTITLE12=Feeling Lonely
TTITLE13=Happy Boys Happy
TTITLE14=Things Are Going To Get Better
TTITLE15=My Way Of Giving [version 2]
TTITLE16=Green Circles [version 1]
TTITLE17=Become Like You
TTITLE18=Get Yourself Together
TTITLE19=All Our Yesterdays
TTITLE20=Talk To You
TTITLE21=Show Me The Way
TTITLE22=Up The Wooden Hills To Bedfordshire
TTITLE23=Eddie's Dreaming
EXTD=
EXTT0=
EXTT1=
EXTT2=
EXTT3=
EXTT4=
EXTT5=
EXTT6=
EXTT7=
EXTT8=
EXTT9=
EXTT10=
EXTT11=
EXTT12=
EXTT13=
EXTT14=
EXTT15=
EXTT16=
EXTT17=
EXTT18=
EXTT19=
EXTT20=
EXTT21=
EXTT22=
EXTT23=
PLAYORDER=
